<svg xmlns="http://www.w3.org/2000/svg" viewBox="0 0 1000 340" font-family="JetBrains Mono,monospace"><rect width="1000" height="340" fill="#0e1116"/><rect x="16" y="26" width="822" height="274" fill="#11151c"/><text x="16" y="18" font-size="12.5" fill="#e8eaed">LIQUIDEX Risk Engine  ·  composite risk 0-1</text><polygon points="16,300.0 16.0,258.3 26.4,258.6 36.8,254.1 47.2,251.9 57.6,251.7 68.0,249.9 78.4,242.7 88.8,244.5 99.2,242.1 109.6,243.6 120.1,241.8 130.5,233.7 140.9,234.6 151.3,230.4 161.7,231.1 172.1,230.2 182.5,222.4 192.9,221.0 203.3,218.6 213.7,218.7 224.1,212.7 234.5,217.7 244.9,215.7 255.3,213.3 265.7,213.8 276.1,219.7 286.5,218.1 296.9,214.0 307.3,214.5 317.7,215.9 328.2,218.9 338.6,214.9 349.0,211.6 359.4,206.3 369.8,199.4 380.2,195.9 390.6,192.8 401.0,193.7 411.4,185.2 421.8,180.7 432.2,179.4 442.6,178.8 453.0,175.8 463.4,170.6 473.8,163.0 484.2,163.0 494.6,163.0 505.0,163.0 515.4,163.0 525.8,163.0 536.3,163.0 546.7,163.0 557.1,163.0 567.5,163.0 577.9,163.0 588.3,163.0 598.7,163.0 609.1,163.0 619.5,163.0 629.9,163.0 640.3,163.0 650.7,163.0 661.1,163.0 671.5,163.0 681.9,163.0 692.3,163.0 702.7,163.0 713.1,163.0 723.5,163.0 733.9,163.0 744.4,163.0 754.8,163.0 765.2,163.0 775.6,163.0 786.0,163.0 796.4,163.0 806.8,163.0 817.2,163.0 827.6,163.0 838.0,163.0 838,300.0" fill="rgba(0,230,118,.10)"/><polygon points="16,26.0 16.0,163.0 26.4,163.0 36.8,163.0 47.2,163.0 57.6,163.0 68.0,163.0 78.4,163.0 88.8,163.0 99.2,163.0 109.6,163.0 120.1,163.0 130.5,163.0 140.9,163.0 151.3,163.0 161.7,163.0 172.1,163.0 182.5,163.0 192.9,163.0 203.3,163.0 213.7,163.0 224.1,163.0 234.5,163.0 244.9,163.0 255.3,163.0 265.7,163.0 276.1,163.0 286.5,163.0 296.9,163.0 307.3,163.0 317.7,163.0 328.2,163.0 338.6,163.0 349.0,163.0 359.4,163.0 369.8,163.0 380.2,163.0 390.6,163.0 401.0,163.0 411.4,163.0 421.8,163.0 432.2,163.0 442.6,163.0 453.0,163.0 463.4,163.0 473.8,162.8 484.2,158.9 494.6,156.7 505.0,150.7 515.4,145.9 525.8,143.0 536.3,143.0 546.7,137.9 557.1,136.1 567.5,124.7 577.9,124.0 588.3,117.2 598.7,113.2 609.1,110.5 619.5,109.6 629.9,105.1 640.3,101.2 650.7,95.5 661.1,82.7 671.5,83.4 681.9,74.0 692.3,75.8 702.7,84.2 713.1,87.3 723.5,86.7 733.9,86.1 744.4,91.0 754.8,94.5 765.2,92.4 775.6,96.0 786.0,96.0 796.4,91.3 806.8,92.0 817.2,97.8 827.6,93.8 838.0,93.9 838,26.0" fill="rgba(255,23,68,.10)"/><line x1="16" y1="245.2" x2="838" y2="245.2" stroke="#00E676" stroke-opacity=".35" stroke-dasharray="5 5"/><text x="846" y="249.2" font-size="10" fill="#00E676" fill-opacity=".8">SAFE ZONE</text><line x1="16" y1="163.0" x2="838" y2="163.0" stroke="#FFB800" stroke-opacity=".35" stroke-dasharray="5 5"/><text x="846" y="167.0" font-size="10" fill="#FFB800" fill-opacity=".8">MIDPOINT</text><line x1="16" y1="80.8" x2="838" y2="80.8" stroke="#FF1744" stroke-opacity=".35" stroke-dasharray="5 5"/><text x="846" y="84.8" font-size="10" fill="#FF1744" fill-opacity=".8">DANGER ZONE</text><line x1="16.0" y1="258.3" x2="26.4" y2="258.6" stroke="#00E676" stroke-width="2.4" stroke-linecap="round"/><line x1="26.4" y1="258.6" x2="36.8" y2="254.1" stroke="#00E676" stroke-width="2.4" stroke-linecap="round"/><line x1="36.8" y1="254.1" x2="47.2" y2="251.9" stroke="#00E676" stroke-width="2.4" stroke-linecap="round"/><line x1="47.2" y1="251.9" x2="57.6" y2="251.7" stroke="#00E676" stroke-width="2.4" stroke-linecap="round"/><line x1="57.6" y1="251.7" x2="68.0" y2="249.9" stroke="#00E676" stroke-width="2.4" stroke-linecap="round"/><line x1="68.0" y1="249.9" x2="78.4" y2="242.7" stroke="#00E5FF" stroke-width="2.4" stroke-linecap="round"/><line x1="78.4" y1="242.7" x2="88.8" y2="244.5" stroke="#00E5FF" stroke-width="2.4" stroke-linecap="round"/><line x1="88.8" y1="244.5" x2="99.2" y2="242.1" stroke="#00E5FF" stroke-width="2.4" stroke-linecap="round"/><line x1="99.2" y1="242.1" x2="109.6" y2="243.6" stroke="#00E5FF" stroke-width="2.4" stroke-linecap="round"/><line x1="109.6" y1="243.6" x2="120.1" y2="241.8" stroke="#00E5FF" stroke-width="2.4" stroke-linecap="round"/><line x1="120.1" y1="241.8" x2="130.5" y2="233.7" stroke="#00E5FF" stroke-width="2.4" stroke-linecap="round"/><line x1="130.5" y1="233.7" x2="140.9" y2="234.6" stroke="#00E5FF" stroke-width="2.4" stroke-linecap="round"/><line x1="140.9" y1="234.6" x2="151.3" y2="230.4" stroke="#00E5FF" stroke-width="2.4" stroke-linecap="round"/><line x1="151.3" y1="230.4" x2="161.7" y2="231.1" stroke="#00E5FF" stroke-width="2.4" stroke-linecap="round"/><line x1="161.7" y1="231.1" x2="172.1" y2="230.2" stroke="#00E5FF" stroke-width="2.4" stroke-linecap="round"/><line x1="172.1" y1="230.2" x2="182.5" y2="222.4" stroke="#00E5FF" stroke-width="2.4" stroke-linecap="round"/><line x1="182.5" y1="222.4" x2="192.9" y2="221.0" stroke="#00E5FF" stroke-width="2.4" stroke-linecap="round"/><line x1="192.9" y1="221.0" x2="203.3" y2="218.6" stroke="#00E5FF" stroke-width="2.4" stroke-linecap="round"/><line x1="203.3" y1="218.6" x2="213.7" y2="218.7" stroke="#00E5FF" stroke-width="2.4" stroke-linecap="round"/><line x1="213.7" y1="218.7" x2="224.1" y2="212.7" stroke="#00E5FF" stroke-width="2.4" stroke-linecap="round"/><line x1="224.1" y1="212.7" x2="234.5" y2="217.7" stroke="#00E5FF" stroke-width="2.4" stroke-linecap="round"/><line x1="234.5" y1="217.7" x2="244.9" y2="215.7" stroke="#00E5FF" stroke-width="2.4" stroke-linecap="round"/><line x1="244.9" y1="215.7" x2="255.3" y2="213.3" stroke="#00E5FF" stroke-width="2.4" stroke-linecap="round"/><line x1="255.3" y1="213.3" x2="265.7" y2="213.8" stroke="#00E5FF" stroke-width="2.4" stroke-linecap="round"/><line x1="265.7" y1="213.8" x2="276.1" y2="219.7" stroke="#00E5FF" stroke-width="2.4" stroke-linecap="round"/><line x1="276.1" y1="219.7" x2="286.5" y2="218.1" stroke="#00E5FF" stroke-width="2.4" stroke-linecap="round"/><line x1="286.5" y1="218.1" x2="296.9" y2="214.0" stroke="#00E5FF" stroke-width="2.4" stroke-linecap="round"/><line x1="296.9" y1="214.0" x2="307.3" y2="214.5" stroke="#00E5FF" stroke-width="2.4" stroke-linecap="round"/><line x1="307.3" y1="214.5" x2="317.7" y2="215.9" stroke="#00E5FF" stroke-width="2.4" stroke-linecap="round"/><line x1="317.7" y1="215.9" x2="328.2" y2="218.9" stroke="#00E5FF" stroke-width="2.4" stroke-linecap="round"/><line x1="328.2" y1="218.9" x2="338.6" y2="214.9" stroke="#00E5FF" stroke-width="2.4" stroke-linecap="round"/><line x1="338.6" y1="214.9" x2="349.0" y2="211.6" stroke="#00E5FF" stroke-width="2.4" stroke-linecap="round"/><line x1="349.0" y1="211.6" x2="359.4" y2="206.3" stroke="#00E5FF" stroke-width="2.4" stroke-linecap="round"/><line x1="359.4" y1="206.3" x2="369.8" y2="199.4" stroke="#00E5FF" stroke-width="2.4" stroke-linecap="round"/><line x1="369.8" y1="199.4" x2="380.2" y2="195.9" stroke="#00E5FF" stroke-width="2.4" stroke-linecap="round"/><line x1="380.2" y1="195.9" x2="390.6" y2="192.8" stroke="#00E5FF" stroke-width="2.4" stroke-linecap="round"/><line x1="390.6" y1="192.8" x2="401.0" y2="193.7" stroke="#00E5FF" stroke-width="2.4" stroke-linecap="round"/><line x1="401.0" y1="193.7" x2="411.4" y2="185.2" stroke="#FFB800" stroke-width="2.4" stroke-linecap="round"/><line x1="411.4" y1="185.2" x2="421.8" y2="180.7" stroke="#FFB800" stroke-width="2.4" stroke-linecap="round"/><line x1="421.8" y1="180.7" x2="432.2" y2="179.4" stroke="#FFB800" stroke-width="2.4" stroke-linecap="round"/><line x1="432.2" y1="179.4" x2="442.6" y2="178.8" stroke="#FFB800" stroke-width="2.4" stroke-linecap="round"/><line x1="442.6" y1="178.8" x2="453.0" y2="175.8" stroke="#FFB800" stroke-width="2.4" stroke-linecap="round"/><line x1="453.0" y1="175.8" x2="463.4" y2="170.6" stroke="#FFB800" stroke-width="2.4" stroke-linecap="round"/><line x1="463.4" y1="170.6" x2="473.8" y2="162.8" stroke="#FFB800" stroke-width="2.4" stroke-linecap="round"/><line x1="473.8" y1="162.8" x2="484.2" y2="158.9" stroke="#FFB800" stroke-width="2.4" stroke-linecap="round"/><line x1="484.2" y1="158.9" x2="494.6" y2="156.7" stroke="#FFB800" stroke-width="2.4" stroke-linecap="round"/><line x1="494.6" y1="156.7" x2="505.0" y2="150.7" stroke="#FFB800" stroke-width="2.4" stroke-linecap="round"/><line x1="505.0" y1="150.7" x2="515.4" y2="145.9" stroke="#FFB800" stroke-width="2.4" stroke-linecap="round"/><line x1="515.4" y1="145.9" x2="525.8" y2="143.0" stroke="#FFB800" stroke-width="2.4" stroke-linecap="round"/><line x1="525.8" y1="143.0" x2="536.3" y2="143.0" stroke="#FFB800" stroke-width="2.4" stroke-linecap="round"/><line x1="536.3" y1="143.0" x2="546.7" y2="137.9" stroke="#FFB800" stroke-width="2.4" stroke-linecap="round"/><line x1="546.7" y1="137.9" x2="557.1" y2="136.1" stroke="#FFB800" stroke-width="2.4" stroke-linecap="round"/><line x1="557.1" y1="136.1" x2="567.5" y2="124.7" stroke="#FF6D00" stroke-width="2.4" stroke-linecap="round"/><line x1="567.5" y1="124.7" x2="577.9" y2="124.0" stroke="#FF6D00" stroke-width="2.4" stroke-linecap="round"/><line x1="577.9" y1="124.0" x2="588.3" y2="117.2" stroke="#FF6D00" stroke-width="2.4" stroke-linecap="round"/><line x1="588.3" y1="117.2" x2="598.7" y2="113.2" stroke="#FF6D00" stroke-width="2.4" stroke-linecap="round"/><line x1="598.7" y1="113.2" x2="609.1" y2="110.5" stroke="#FF6D00" stroke-width="2.4" stroke-linecap="round"/><line x1="609.1" y1="110.5" x2="619.5" y2="109.6" stroke="#FF6D00" stroke-width="2.4" stroke-linecap="round"/><line x1="619.5" y1="109.6" x2="629.9" y2="105.1" stroke="#FF6D00" stroke-width="2.4" stroke-linecap="round"/><line x1="629.9" y1="105.1" x2="640.3" y2="101.2" stroke="#FF6D00" stroke-width="2.4" stroke-linecap="round"/><line x1="640.3" y1="101.2" x2="650.7" y2="95.5" stroke="#FF6D00" stroke-width="2.4" stroke-linecap="round"/><line x1="650.7" y1="95.5" x2="661.1" y2="82.7" stroke="#FF6D00" stroke-width="2.4" stroke-linecap="round"/><line x1="661.1" y1="82.7" x2="671.5" y2="83.4" stroke="#FF6D00" stroke-width="2.4" stroke-linecap="round"/><line x1="671.5" y1="83.4" x2="681.9" y2="74.0" stroke="#FF1744" stroke-width="2.4" stroke-linecap="round"/><line x1="681.9" y1="74.0" x2="692.3" y2="75.8" stroke="#FF1744" stroke-width="2.4" stroke-linecap="round"/><line x1="692.3" y1="75.8" x2="702.7" y2="84.2" stroke="#FF6D00" stroke-width="2.4" stroke-linecap="round"/><line x1="702.7" y1="84.2" x2="713.1" y2="87.3" stroke="#FF6D00" stroke-width="2.4" stroke-linecap="round"/><line x1="713.1" y1="87.3" x2="723.5" y2="86.7" stroke="#FF6D00" stroke-width="2.4" stroke-linecap="round"/><line x1="723.5" y1="86.7" x2="733.9" y2="86.1" stroke="#FF6D00" stroke-width="2.4" stroke-linecap="round"/><line x1="733.9" y1="86.1" x2="744.4" y2="91.0" stroke="#FF6D00" stroke-width="2.4" stroke-linecap="round"/><line x1="744.4" y1="91.0" x2="754.8" y2="94.5" stroke="#FF6D00" stroke-width="2.4" stroke-linecap="round"/><line x1="754.8" y1="94.5" x2="765.2" y2="92.4" stroke="#FF6D00" stroke-width="2.4" stroke-linecap="round"/><line x1="765.2" y1="92.4" x2="775.6" y2="96.0" stroke="#FF6D00" stroke-width="2.4" stroke-linecap="round"/><line x1="775.6" y1="96.0" x2="786.0" y2="96.0" stroke="#FF6D00" stroke-width="2.4" stroke-linecap="round"/><line x1="786.0" y1="96.0" x2="796.4" y2="91.3" stroke="#FF6D00" stroke-width="2.4" stroke-linecap="round"/><line x1="796.4" y1="91.3" x2="806.8" y2="92.0" stroke="#FF6D00" stroke-width="2.4" stroke-linecap="round"/><line x1="806.8" y1="92.0" x2="817.2" y2="97.8" stroke="#FF6D00" stroke-width="2.4" stroke-linecap="round"/><line x1="817.2" y1="97.8" x2="827.6" y2="93.8" stroke="#FF6D00" stroke-width="2.4" stroke-linecap="round"/><line x1="827.6" y1="93.8" x2="838.0" y2="93.9" stroke="#FF6D00" stroke-width="2.4" stroke-linecap="round"/><circle cx="16.0" cy="283.6" r="2.4" fill="#787882"/><circle cx="47.2" cy="283.6" r="2.4" fill="#FF1744"/><circle cx="78.4" cy="283.6" r="2.4" fill="#FF1744"/><circle cx="109.6" cy="283.6" r="2.4" fill="#787882"/><circle cx="140.9" cy="283.6" r="2.4" fill="#FF1744"/><circle cx="172.1" cy="283.6" r="2.4" fill="#FF6D00"/><circle cx="203.3" cy="283.6" r="2.4" fill="#FF1744"/><circle cx="234.5" cy="283.6" r="2.4" fill="#787882"/><circle cx="265.7" cy="283.6" r="2.4" fill="#FF6D00"/><circle cx="296.9" cy="283.6" r="2.4" fill="#787882"/><circle cx="328.2" cy="283.6" r="2.4" fill="#00E5FF"/><circle cx="359.4" cy="283.6" r="2.4" fill="#FF1744"/><circle cx="390.6" cy="283.6" r="2.4" fill="#FF1744"/><circle cx="421.8" cy="283.6" r="2.4" fill="#FF1744"/><circle cx="453.0" cy="283.6" r="2.4" fill="#FF6D00"/><circle cx="484.2" cy="283.6" r="2.4" fill="#FF1744"/><circle cx="515.4" cy="283.6" r="2.4" fill="#FF1744"/><circle cx="546.7" cy="283.6" r="2.4" fill="#FF1744"/><circle cx="577.9" cy="283.6" r="2.4" fill="#FF1744"/><circle cx="609.1" cy="283.6" r="2.4" fill="#FF1744"/><circle cx="640.3" cy="283.6" r="2.4" fill="#FF1744"/><circle cx="671.5" cy="283.6" r="2.4" fill="#FF1744"/><circle cx="702.7" cy="283.6" r="2.4" fill="#787882"/><circle cx="733.9" cy="283.6" r="2.4" fill="#00E5FF"/><circle cx="765.2" cy="283.6" r="2.4" fill="#00E676"/><circle cx="796.4" cy="283.6" r="2.4" fill="#787882"/><circle cx="827.6" cy="283.6" r="2.4" fill="#00E5FF"/><line x1="16" y1="93.9" x2="838" y2="93.9" stroke="#FF6D00" stroke-width="1" stroke-dasharray="1 4" stroke-opacity=".5"/><text x="846" y="87.9" font-size="12" fill="#FF6D00" font-weight="bold">HIGH  SHORT  0.74</text><text x="846" y="43.7" font-size="10" fill="#FF6D00">EXHAUSTING</text><text x="846" y="105.9" font-size="9.5" fill="#FF6D00">SIZE 0.25x</text></svg>